<?xml version="1.0" encoding="utf-8"?>
<!-- Generator: Adobe Illustrator 24.0.3, SVG Export Plug-In . SVG Version: 6.00 Build 0)  -->
<svg version="1.1" id="Layer_1" xmlns="http://www.w3.org/2000/svg" xmlns:xlink="http://www.w3.org/1999/xlink" x="0px" y="0px"
	 viewBox="0 0 28 36" style="enable-background:new 0 0 28 36;" xml:space="preserve">
<style type="text/css">
	.st0{fill:#FFAE0C;}
</style>
<title>icon / product / careers</title>
<desc>Created with Sketch.</desc>
<g id="Group-26-Copy" transform="translate(320.000000, 0.000000)">
	<g id="icon-_x2F_-product-_x2F_-careers" transform="translate(136.000000, 58.000000)">
		<path id="_xD83C__xDFA8_-icon-color" class="st0" d="M-439.4-23.5c-0.5,0.9-1.5,1.5-2.6,1.5s-2.1-0.6-2.6-1.5h-0.4
			c-1.7,0-3-1.3-3-3v-5.9c-4.5-2.2-7.5-6.9-7.5-12.1c0-7.5,6-13.5,13.5-13.5s13.5,6,13.5,13.5c0,5.2-3,9.8-7.5,12.1v5.9
			c0,1.7-1.3,3-3,3H-439.4z M-439-31v-1.5h-6v1.5H-439z M-439-28h-6v1.5h6V-28z M-447.4-35.5h10.8c3.1-1.9,5.1-5.2,5.1-9
			c0-5.8-4.7-10.5-10.5-10.5s-10.5,4.7-10.5,10.5C-452.5-40.7-450.5-37.4-447.4-35.5z M-442-52c0.8,0,1.5,0.7,1.5,1.5
			s-0.7,1.5-1.5,1.5c-2.5,0-4.5,2-4.5,4.5c0,0.8-0.7,1.5-1.5,1.5s-1.5-0.7-1.5-1.5C-449.5-48.6-446.1-52-442-52z"/>
	</g>
</g>
</svg>
