<?xml version="1.0" encoding="UTF-8"?>
<svg width="34px" height="30px" viewBox="0 0 34 30" version="1.1" xmlns="http://www.w3.org/2000/svg" xmlns:xlink="http://www.w3.org/1999/xlink">
    <!-- Generator: Sketch 54.1 (76490) - https://sketchapp.com -->
    <title>icon / product / careers</title>
    <desc>Created with Sketch.</desc>
    <g id="Design" stroke="none" stroke-width="1" fill="none" fill-rule="evenodd">
        <g id="homepage-desktop-Bootcamp-design" transform="translate(-220.000000, -1032.000000)" fill="#02B3E4" fill-rule="nonzero">
            <g id="Group-24" transform="translate(87.000000, 875.000000)">
                <g id="Group-8" transform="translate(0.000000, 96.000000)">
                    <g id="Group-26">
                        <g id="icon-/-product-/-careers" transform="translate(133.000000, 61.000000)">
                            <path d="M4.61777422,9.00007075 C7.39725294,13.0237731 11.4765959,15 17,15 C22.52022,15 26.5980434,13.0260509 29.3774177,9.00702729 C26.5322976,9.00329272 18.2790831,9.00097387 4.61777422,9.00007075 Z M30.4986833,12.4310627 C27.2148068,16.1277075 22.6829043,18 17,18 C11.3163535,18 6.78400936,16.1272184 3.50003001,12.4296141 C3.50301213,15.3797361 3.50300212,20.2331087 3.5,26.9897318 C3.5,26.9955116 12.5040984,26.9989343 30.5122953,27 C30.5001233,27 30.495586,22.1436876 30.4986833,12.4310627 Z M9.50003148,6 C9.5000105,5.99531815 9.5,5.99063369 9.5,5.98594666 L9.5,3.01405334 C9.5,1.35548507 10.8450845,0 12.4955452,0 L21.5044548,0 C23.1654188,0 24.5,1.3431858 24.5,3.01405334 L24.5,5.98594666 C24.5,5.99063353 24.4999893,5.99531799 24.4999678,6 L30.5122953,6 C32.1676851,6 33.5,7.35175035 33.5,9.01026821 L33.5,26.9897318 C33.5,28.6439595 32.1537434,30 30.5122953,30 L3.48770466,30 C1.83231492,30 0.5,28.6482497 0.5,26.9897318 L0.5,9.01026821 C0.5,7.35604053 1.84625662,6 3.48770466,6 L9.50003148,6 Z M12.4955452,3 C12.5071335,3 12.5,3.00718866 12.5,3.01405334 L12.5,5.98594666 C12.5,5.99553753 12.498839,5.99893725 12.4977012,6 L21.5044548,6 C21.4928665,6 21.5,5.99281134 21.5,5.98594666 L21.5,3.01405334 C21.5,3.00446247 21.501161,3.00106275 21.5022988,3 L12.4955452,3 Z" id="🎨-icon-color"></path>
                        </g>
                    </g>
                </g>
            </g>
        </g>
    </g>
</svg>