<?xml version="1.0" encoding="utf-8"?>
<!-- Generator: Adobe Illustrator 24.0.3, SVG Export Plug-In . SVG Version: 6.00 Build 0)  -->
<svg version="1.1" id="Layer_1" xmlns="http://www.w3.org/2000/svg" xmlns:xlink="http://www.w3.org/1999/xlink" x="0px" y="0px"
	 viewBox="0 0 30 30" style="enable-background:new 0 0 30 30;" xml:space="preserve">
<style type="text/css">
	.st0{fill:#9F4CDF;}
</style>
<title>icon / product / careers</title>
<desc>Created with Sketch.</desc>
<g id="homepage-desktop-Bootcamp-design" transform="translate(-1181.000000, -1032.000000)">
	<g id="Group-8" transform="translate(0.000000, 96.000000)">
		<g id="Group-26-Copy-3" transform="translate(960.000000, 0.000000)">
			<g id="icon-_x2F_-product-_x2F_-careers" transform="translate(134.000000, 61.000000)">
				<path id="_xD83C__xDFA8_-icon-color" class="st0" d="M89.8,892.7c-0.8-0.9-1.3-2.2-1.3-3.5c0-2.9,2.4-5.2,5.2-5.2
					s5.2,2.4,5.2,5.2c0,1.3-0.5,2.6-1.3,3.5c1.7,1.2,2.8,3.2,2.8,5.5v3.8c0,1.7-1.3,3-3,3H90c-1.7,0-3-1.3-3-3v-3.8
					C87,896,88.1,894,89.8,892.7z M112.5,891.5h-4l-4.1,2.7c-1,0.7-2.3,0-2.3-1.2v-3c0-0.8,0.7-1.5,1.5-1.5s1.5,0.7,1.5,1.5v0.2
					l2.2-1.4c0.2-0.2,0.5-0.3,0.8-0.3h4.5c0.7,0,1.5-0.8,1.5-1.5v-7.5c0-0.7-0.8-1.5-1.5-1.5h-12c-0.7,0-1.5,0.8-1.5,1.5v1.5
					c0,0.8-0.7,1.5-1.5,1.5S96,881.8,96,881v-1.5c0-2.3,2.2-4.5,4.5-4.5h12c2.3,0,4.5,2.2,4.5,4.5v7.5
					C117,889.3,114.8,891.5,112.5,891.5z M93.8,891.5c1.2,0,2.2-1,2.2-2.2s-1-2.2-2.2-2.2s-2.2,1-2.2,2.2S92.5,891.5,93.8,891.5z
					 M93.8,894.5c-2.1,0-3.8,1.7-3.8,3.8v3.8h7.5v-3.8C97.5,896.2,95.8,894.5,93.8,894.5z"/>
			</g>
		</g>
	</g>
</g>
</svg>
