<svg xmlns="http://www.w3.org/2000/svg" width="110" height="72"><path fill="#fff" fill-rule="evenodd" d="M26.12 34.42H13.76v3.64h8.76c-.43 5.1-4.7 7.3-8.74 7.3-5.17 0-9.68-4.05-9.68-9.7 0-5.52 4.3-9.77 9.7-9.77 4.14 0 6.6 2.63 6.6 2.63l2.56-2.64s-3.3-3.66-9.3-3.66C6 22.24.1 28.66.1 35.6.1 42.4 5.64 49 13.84 49c7.2 0 12.5-4.9 12.5-12.16 0-1.53-.23-2.42-.23-2.42zm10.12-2.64c-5.07 0-8.7 3.94-8.7 8.53 0 4.68 3.52 8.7 8.76 8.7 4.74 0 8.62-3.6 8.62-8.58 0-5.7-4.52-8.64-8.68-8.64zm.05 3.38c2.48 0 4.84 2 4.84 5.23 0 3.15-2.35 5.2-4.87 5.2-2.76 0-4.94-2.2-4.94-5.23 0-2.98 2.16-5.2 4.96-5.2zm18.86-3.38c-5.07 0-8.7 3.94-8.7 8.53C46.46 45 50 49 55.23 49c4.74 0 8.63-3.6 8.63-8.58 0-5.7-4.52-8.64-8.7-8.64zm.05 3.38c2.5 0 4.87 2 4.87 5.23 0 3.15-2.36 5.2-4.87 5.2-2.77 0-4.94-2.2-4.94-5.23 0-2.98 2.15-5.2 4.95-5.2zm18.53-3.37c-4.66 0-8.3 4.04-8.3 8.6 0 5.17 4.23 8.6 8.22 8.6 2.46 0 3.78-.97 4.74-2.1v1.7c0 2.98-1.82 4.75-4.56 4.75-2.64 0-3.97-1.95-4.43-3.06l-3.3 1.38c1.17 2.48 3.54 5.07 7.77 5.07 4.63 0 8.15-2.9 8.15-8.97V32.3H78.4v1.47c-1.12-1.2-2.65-1.98-4.67-1.98zm.33 3.36c2.28 0 4.63 1.94 4.63 5.25 0 3.37-2.35 5.22-4.7 5.22-2.47 0-4.78-2-4.78-5.2 0-3.3 2.4-5.26 4.84-5.26zm24.1-3.4c-4.4 0-8.07 3.48-8.07 8.6 0 5.42 4.1 8.64 8.48 8.64 3.67 0 5.9-2 7.26-3.78l-3-1.98c-.77 1.2-2.07 2.37-4.24 2.37-2.43 0-3.55-1.3-4.24-2.6l11.6-4.8-.6-1.4c-1.12-2.73-3.74-5.03-7.2-5.03zm.15 3.32c1.6 0 2.73.83 3.22 1.84l-7.75 3.22c-.34-2.5 2.04-5.06 4.55-5.06zm-13.75 13.4h3.82V23.13h-3.82V48.5"/></svg>