<svg xmlns="http://www.w3.org/2000/svg" width="110" height="72" viewBox="0 0 86 72"><title>white/logo-white-ibm</title><desc>Created with Sketch.</desc><g fill="none"><path fill="#fff" d="M17.77 45.7h24.65c-.03.5-.5 1.87-.73 2.18H17.76V45.7zm0-20.58h23.96c.2.36.68 1.7.73 2.17H17.78V25.1zm4.45 12.35h17.1c.55.38 1.6 1.62 2 2.18h-19.1v-2.18zm13.33 6.3V41.6h6.74c.16.43.4 1.6.38 2.17h-7.13zm-13.33-8.24v-2.17h19.12c-.42.55-1.44 1.8-2 2.17H22.22zm13.33-6.3h7.1c0 .5-.2 1.74-.37 2.18h-6.73v-2.16zm-17.78 20.6h22.3c-1.98 1.62-3.73 2.17-6.8 2.17h-15.5v-2.17zm0-26.66V21h15.5c3.07 0 4.82.56 6.8 2.17h-22.3zM0 23.17V21h15.55v2.17H0zm0 4.12V25.1h15.55v2.17H0zm0 20.58V45.7h15.55v2.18H0zm4.44-4.1v-2.2h6.67v2.2H4.45zm0-4.13v-2.18h6.67v2.18H4.45zm0-4.12v-2.17h6.67v2.17H4.45zm0-4.12v-2.16h6.67v2.17H4.45zm17.78 12.37V41.6h6.66v2.17h-6.66zm0-12.36v-2.16h6.66v2.17h-6.66zm36.9 12.37l-.77-2.18h7.73l-.78 2.17h-6.17zm-1.47-4.12l-.78-2.18h10.7l-.8 2.18h-9.12zM0 52v-2.17h15.55V52H0zm62.1 0l-.8-2.17h1.8L62.34 52h-.23zm-13.22-8.23V41.6h6.67v2.17h-6.67zm0-4.12v-2.18h6.67v2.18h-6.67zM44.44 52v-2.17h11.1V52h-11.1zm0-4.12V45.7h11.1v2.18h-11.1zm16.18 0l-.8-2.17h4.78l-.8 2.18h-3.18zm8.26-4.1v-2.2h6.67v2.2h-6.67zm0-4.13v-2.18h6.67v2.18h-6.67zm0 12.35v-2.17h11.1V52H68.9zm0-4.12V45.7h11.1v2.18H68.9zM60 29.24l.8 2.17H48.87v-2.16H60zm2.92 4.1h12.63v2.2h-6.67V33.8l-.62 1.7h-12.1l-.6-1.7v1.7h-6.68v-2.17H61.5l.7 1.96.72-1.95zM56.98 21l.8 2.17H44.44V21h12.54zm1.5 4.12l.8 2.17H44.45V25.1H58.5zm5.95 4.12h11.12v2.17H63.63l.8-2.16zM67.45 21H80v2.17H66.64l.8-2.17zm-1.5 4.12h14.04v2.17H65.13l.8-2.18zm18.18 25.16c.27 0 .68.04.68-.35 0-.3-.24-.33-.48-.33h-.56v.68h.37zm.92 1.06h-.3l-.55-.88h-.44v.88h-.24v-1.9h.86c.5 0 .7.18.7.5 0 .37-.28.5-.62.52l.6.88zm.6-.96c0-.82-.63-1.47-1.48-1.47s-1.48.66-1.48 1.48c0 .84.62 1.5 1.47 1.5s1.47-.66 1.47-1.5zm-3.23 0c0-.93.78-1.7 1.75-1.7s1.75.77 1.75 1.7c0 .95-.78 1.7-1.75 1.7s-1.75-.75-1.75-1.7z"/></g></svg>