<svg xmlns="http://www.w3.org/2000/svg" width="110" height="72"><path fill="#fff" fill-rule="evenodd" d="M99.04 47.3l-3.1-3.3c-.1-.07-.13-.23-.05-.35l2.36-4.1c.06-.12.06-.2.06-.24 0-.24-.2-.46-.46-.46h-1.73c-.17 0-.33.1-.4.25l-1.5 2.66c-.08.1-.23.13-.34.06l-2.43-2.56c-.04-.04-.05-.1-.05-.15 0-.05.03-.1.08-.16l.03-.03c1.37-.8 2.93-2 2.93-4.13 0-2.44-1.7-4.08-4.23-4.08-2.48 0-4.36 1.7-4.36 4.25 0 1.13.45 2.24 1.4 3.42v.03c.05.05.07.1.06.17 0 .07-.04.13-.1.17-2.05 1.2-3.1 2.8-3.1 4.76 0 3.3 2.7 5.05 5.37 5.05 1.83 0 3.26-.72 4.64-2.34l.03-.02c.08-.08.23-.08.33.02l1.67 1.78.05.05c.1.1.2.14.33.14h2.2c.26 0 .46-.2.46-.47 0-.12-.03-.24-.1-.33zm-8.8-14.18c1.06 0 1.6.74 1.6 1.64 0 1.05-.9 1.67-2 2.3l-.06.02c-.08.05-.2.03-.26-.04L89.5 37c-.5-.53-1.05-1.4-1.05-2 0-1.06.74-1.9 1.8-1.9zm2.24 11.26c-.8 1-1.7 1.65-2.97 1.65-1.5 0-2.7-1.13-2.7-2.56 0-1.27.53-2.02 2.1-3 .1-.06.22-.04.3.03l3.25 3.5c.06.07.1.13.1.2s-.02.12-.07.18zm-10.4 1.6l-.1.02c-2.5 0-3.77-1.36-3.77-4.04v-7.9c0-.12.12-.23.26-.23h3.9c.26 0 .47-.2.47-.48V31.6c0-.27-.2-.48-.46-.48h-3.9c-.13 0-.25-.1-.25-.26v-3.63c0-.26-.18-.48-.44-.5h-.05l-2 .17c-.23 0-.44.2-.44.48v3.5c0 .14-.1.25-.25.25H72.6c-.26 0-.47.2-.47.48v1.77c0 .13.06.25.15.34s.2.15.34.15h2.44c.13 0 .24.1.24.25v8.42c0 4.52 3.3 6.13 6.2 6.13 0 0 .36 0 .62-.02s.46-.2.46-.48V46.5c0-.26-.2-.47-.46-.47zm-11.2 1.44c-.15-.46-.2-.97-.2-1.2-.02-.15-.02-.8-.02-.8v-8.35c0-4.4-3.03-5.97-5.86-5.97-2.24 0-4.3.6-5.6 1.5-.12.08-.2.2-.2.3-.04.14 0 .26.05.36 0 .02 1.05 1.46 1.05 1.46.14.2.43.26.63.1l.14-.08c1.03-.65 2.25-1.03 3.48-1.03 3.5 0 3.4 2.83 3.4 3.2 0 .2-.1.24-.24.23h-.53c-2.72-.1-9.6.84-9.6 6.45 0 3.3 2.67 4.98 5.16 4.98 2.4 0 4.35-.98 5.32-2.2.02 0 .04-.02.06-.02.04 0 .07.03.07.06 0 .16 0 .5.03.8.02.3.05.5.1.64.04.13.12.27.24.33.06.03.12.05.2.05h1.93c.25 0 .45-.2.45-.45 0-.08-.07-.3-.07-.3zm-3-6.53c-.4 2.87-1.78 4.53-4.32 4.96-1.8.3-3.42-.46-3.5-2.43-.1-2.17 2.35-4 6.86-3.8 0 0 .33.03.55.06.2.02.32.08.4.2s.07.35-.02 1zm40.48 5.1h-.1c-2.5 0-3.76-1.36-3.76-4.04v-7.9c0-.12.1-.23.24-.23h3.9c.26 0 .47-.2.47-.48V31.6c0-.27-.2-.48-.46-.48h-3.9c-.13 0-.25-.1-.25-.26v-3.63c0-.26-.2-.48-.46-.5H104l-2 .17c-.24 0-.45.2-.45.48v3.5c0 .14-.1.25-.25.25h-2.45c-.26 0-.47.2-.47.48v1.77c0 .13.04.25.13.34s.22.15.34.15h2.44c.13 0 .24.1.24.25v8.42c0 4.52 3.3 6.13 6.2 6.13 0 0 .34 0 .6-.02.26-.02.45-.2.45-.48V46.5c0-.26-.2-.47-.47-.47zM0 38.34v.15c0 1.28.1 2.54.27 3.78 1.33 2.87 4.98 5.65 8.66 7.2 5.43 2.28 14.05 4 18.94 3.83 14.4-.52 19.66-6.7 21.33-10.43.24-1.42.37-2.88.37-4.37 0-.97-.06-1.92-.16-2.87-.25 2.27-2.23 8.64-17.4 12.12-10.56 2.42-15 2.34-22.27 0-5.56-1.8-8.9-5.7-9.73-9.4zm.54-5.15c.32-1.58.8-3.1 1.38-4.56-.1.46-.15.98-.15 1.6 0 6.3 13.23 12.5 29.44 7.95 6.32-1.8 15.77-5.2 15.77-10.4 0-.16.03-.4-.1-.87.96 1.92 1.68 3.97 2.14 6.13v.1c0 1.27-1.54 9.1-16.75 10.52-1.32.12-10.98.27-19.38-1.9C7.27 40.32 1.67 37.5.6 33.6c-.03-.14-.05-.28-.07-.42zm3.54 19.3c-.85-1.3-1.57-2.7-2.17-4.17 5.5 9.56 19.65 8.87 22.4 8.56 16.72-1.9 22.4-7.75 24.38-11.6-.75 2.8-1.94 5.38-3.5 7.7-5.25 5.35-17.32 11.2-34.9 3.74-2.6-1.1-4.7-2.68-6.2-4.22zm6.03 6.55C14.23 62.15 19.3 64 24.8 64c7.1 0 13.48-3.06 18-7.97-3.5 3-9.45 6.06-19.03 6.06-2.98 0-8.7-.4-13.64-3.05zm29-41.36C35.08 14.73 30.13 13 24.8 13c-8.9 0-16.72 4.84-21.1 12.1-.04.17-.07.35-.07.55 0 2.4 5.73 5.52 13.54 6.54 2.64.34 9.64 1.32 15.06.86 10.94-.92 13.38-4.85 13.38-7.4 0-.5-.17-1.12-.4-1.65-1-1.5-2.17-2.87-3.46-4.1.2.3.27.64.3.86.1 1.74-2.67 4.07-8.26 5.98-3.48 1.2-8.1 2.34-13.82 2.34-9.64 0-12.97-3.76-12.97-6.1 0-.26-.04-2.27 2.2-4.18.78-.65 1.62-1.26 2.5-1.8-1.14.74-1.75 1.58-1.7 2.44.2 2.6 6.85 4.62 14.9 4.4s14.2-2.57 14.2-5.17c0-.74-.55-1.4-1.5-1.97.54.33 1.07.68 1.58 1.04z"/></svg>