<svg xmlns="http://www.w3.org/2000/svg" width="110" height="72"><path fill="#fff" fill-rule="evenodd" d="M.04 26.5h6.52v17.3c0 2.73 1.26 4.36 2.28 5.04-1.07.92-4.3 1.74-6.72-.23C.7 47.46.04 45.53.04 43.73V26.5zm40.7 12.55h2V32.7h-2.2c-.83-3.85-4.28-6.7-8.4-6.7-4.74 0-8.6 3.8-8.6 8.5v14.86c1.35.2 2.97-.02 4.34-1.16 1.43-1.16 2.08-3.1 2.08-4.9v-.54h3.25V36.4h-3.24v-1.94c0-1.2.97-2.16 2.2-2.16s2.17.96 2.17 2.16v6.4c0 4.68 3.86 8.5 8.6 8.5V43c-1.2 0-2.18-.95-2.18-2.13v-1.82zm-24.64-6.4v9.38c0 .53-.46.96-1 .96s-1-.44-1-.97v-9.37H7.67v11c0 1.97.67 4.47 3.77 5.3 3.1.8 4.87-.9 4.87-.9-.16 1.12-1.2 1.94-2.9 2.1-1.3.14-2.96-.3-3.78-.63v5.82c2.1.63 4.3.82 6.5.4 3.94-.76 6.43-4.02 6.43-8.37V32.62H16.1v.04z"/></svg>