<?xml version="1.0" encoding="UTF-8"?>
<svg width="110" height="72" viewBox="0 0 52 60" version="1.1" xmlns="http://www.w3.org/2000/svg" xmlns:xlink="http://www.w3.org/1999/xlink">
    <!-- Generator: Sketch 54.1 (76490) - https://sketchapp.com -->
    <title>white/logo-white-aws</title>
    <desc>Created with Sketch.</desc>
    <g id="Design" stroke="none" stroke-width="1" fill="none" fill-rule="evenodd">
        <g id="Artboard-Copy" transform="translate(-154.000000, -36.000000)" fill="#FFFFFF">
            <g id="white/logo-white-aws" transform="translate(154.000000, 25.000000)">
                <path d="M42.9042653,44.2361111 C42.007144,44.2361111 41.1296739,44.1377638 40.2725385,43.9419098 C39.4152323,43.7460558 38.7573433,43.5202773 38.2988716,43.2652467 C38.0196533,43.1085635 37.8451846,42.9518803 37.7756363,42.7945246 C37.7055754,42.6376733 37.6710576,42.4811582 37.6710576,42.3238025 L37.6710576,41.4706187 C37.6710576,41.1175771 37.8004139,40.9410563 38.0598102,40.9410563 C38.1592625,40.9410563 38.2638412,40.9608939 38.3737172,40.9998965 C38.4830805,41.0395717 38.6278161,41.0982438 38.8074113,41.1764173 C39.3853283,41.431616 40.0133132,41.6279743 40.6911952,41.76482 C41.3687354,41.90217 42.0467882,41.970929 42.724841,41.970929 C43.8013866,41.970929 44.6335735,41.7846576 45.2217433,41.4117784 C45.8095714,41.0395717 46.1038272,40.5098412 46.1038272,39.8230912 C46.1038272,39.3523691 45.9493514,38.9601567 45.6403999,38.646286 C45.3311066,38.3327514 44.7581452,38.0385501 43.9210028,37.763682 L41.4387963,36.9987585 C40.1829973,36.6065461 39.2708385,36.0381492 38.7026617,35.2923909 C38.1344848,34.547305 37.850311,33.7331238 37.850311,32.8505199 C37.850311,32.1444367 38.0046158,31.5220748 38.3139091,30.9824255 C38.6228606,30.4431125 39.0316061,29.9819729 39.5399749,29.5996793 C40.0483436,29.2172176 40.6412981,28.9280597 41.3191801,28.7317013 C41.9967203,28.5360154 42.7144173,28.4375 43.4724421,28.4375 C43.8509419,28.4375 44.2349098,28.462381 44.6236624,28.5109663 C45.012415,28.560224 45.3811746,28.6241077 45.730112,28.7022812 C46.0787078,28.780959 46.4028676,28.8692194 46.701908,28.9670624 C47.0009485,29.0654097 47.2403517,29.1634208 47.4196051,29.2612637 C47.6590083,29.3987818 47.8280089,29.5361318 47.9281447,29.6731456 C48.027597,29.8106637 48.0776649,29.996767 48.0776649,30.2321281 L48.0776649,31.0264717 C48.0776649,31.3795132 47.9476251,31.556034 47.6889124,31.556034 C47.5491323,31.556034 47.3300638,31.4876112 47.0310234,31.3500931 C46.0539301,30.918878 44.9572207,30.7028502 43.7415785,30.7028502 C42.7644853,30.7028502 42.007144,30.8600378 41.4687003,31.1735723 C40.9305984,31.4876112 40.661462,31.9877535 40.661462,32.6739991 C40.661462,33.1447212 40.8306334,33.541977 41.1696599,33.8655985 C41.5085154,34.1890518 42.1365003,34.4980473 43.0537855,34.7922486 L45.4758422,35.557172 C46.7118191,35.9497207 47.5940738,36.4890337 48.1224356,37.1752793 C48.6504556,37.8620293 48.9148073,38.646286 48.9148073,39.5288899 C48.9148073,40.2546426 48.7652871,40.9069289 48.4662466,41.4854128 C48.1672062,42.0640648 47.7533342,42.5591636 47.2253142,42.9710454 C46.6969525,43.3829273 46.0638412,43.6969662 45.326322,43.9124897 C44.588632,44.1280131 43.7812228,44.2361111 42.9042653,44.2361111 Z M20.954526,43.7948091 C20.6554856,43.7948091 20.4359044,43.7410123 20.2968079,43.6329143 C20.1570279,43.5254888 20.0374117,43.3047538 19.9377885,42.9710454 L15.9308175,29.9673469 C15.8306816,29.6341429 15.7812972,29.4083644 15.7812972,29.2906838 C15.7812972,29.0163201 15.9203938,28.878802 16.199783,28.878802 L17.8745803,28.878802 C18.1931011,28.878802 18.4174669,28.9331031 18.5473359,29.0405287 C18.6766922,29.1486266 18.791182,29.3693617 18.891147,29.7025657 L21.7621061,40.8233758 L24.4233951,29.7025657 C24.5028544,29.3693617 24.6127304,29.1486266 24.7525105,29.0405287 C24.891607,28.9331031 25.1210992,28.878802 25.4401326,28.878802 L26.8157187,28.878802 C27.1344103,28.878802 27.3639025,28.9331031 27.5036826,29.0405287 C27.6427791,29.1486266 27.7526551,29.3693617 27.8324562,29.7025657 L30.5238201,40.9704764 L33.4844914,29.7025657 C33.5839437,29.3693617 33.6984335,29.1486266 33.8283025,29.0405287 C33.9576588,28.9331031 34.1820246,28.878802 34.5012289,28.878802 L36.0859724,28.878802 C36.3650198,28.878802 36.504629,29.0163201 36.504629,29.2906838 C36.504629,29.3693617 36.494547,29.4576221 36.4748958,29.555465 C36.4547319,29.6538123 36.4150877,29.7908261 36.3551088,29.9673469 L32.2285215,42.9710454 C32.1283857,43.3047538 32.0089404,43.5254888 31.8695021,43.6329143 C31.729893,43.7410123 31.5108245,43.7948091 31.211784,43.7948091 L29.7464859,43.7948091 C29.4272816,43.7948091 29.1979603,43.736137 29.058522,43.6182883 C28.9189128,43.5006078 28.8090368,43.2753336 28.7295775,42.9416253 L26.0681176,32.1150166 L23.4367326,42.9416253 C23.3567606,43.2753336 23.2468846,43.5006078 23.1077881,43.6182883 C22.968008,43.736137 22.7386867,43.7948091 22.4199951,43.7948091 L20.954526,43.7948091 Z M7.22856973,41.970929 C7.78666464,41.970929 8.37483447,41.8677064 8.99290834,41.6619336 C9.61081133,41.4559927 10.1489132,41.0982438 10.6078976,40.5880147 C10.8867742,40.2746483 11.081065,39.9163951 11.190941,39.5140958 C11.3003044,39.112469 11.3554987,38.6269527 11.3554987,38.0578833 L11.3554987,37.3518001 C10.8568701,37.2341196 10.3334639,37.1413201 9.78545095,37.0723929 C9.23692534,37.0039701 8.70377895,36.9693384 8.18567003,36.9693384 C7.04914547,36.9693384 6.20157942,37.1949488 5.64382627,37.6460014 C5.08538961,38.0973903 4.80634216,38.7446333 4.80634216,39.5877302 C4.80634216,40.3724912 5.01584135,40.9659373 5.43432708,41.3677323 C5.8529837,41.7698634 6.45106459,41.970929 7.22856973,41.970929 Z M14.1664789,39.4112094 C14.1664789,40.0391191 14.2309007,40.5392613 14.3607697,40.9116361 C14.4901261,41.2845153 14.6746767,41.6866465 14.91408,42.1178616 C14.9935393,42.2553797 15.0336961,42.3826428 15.0336961,42.5003233 C15.0336961,42.6768441 14.9238201,42.8437823 14.7045808,43.0004655 L13.6280352,43.7065487 C13.468433,43.8045598 13.3189128,43.8536494 13.1794745,43.8536494 C13.0002211,43.8536494 12.830537,43.7754759 12.6712767,43.6182883 C12.4318734,43.3829273 12.2273298,43.1231895 12.0581583,42.8387389 C11.8886451,42.5546245 11.7141764,42.2259595 11.5347521,41.8530804 C10.1989812,43.4027648 8.52435469,44.177439 6.51104356,44.177439 C5.07564944,44.177439 3.93912488,43.7754759 3.10198252,42.9710454 C2.2644984,42.1671193 1.84584178,41.0883251 1.84584178,39.7348309 C1.84584178,38.3033313 2.36412159,37.1510708 3.40102296,36.2778812 C4.43724081,35.4055323 5.83299071,34.9687694 7.58758915,34.9687694 C8.16550616,34.9687694 8.76871345,35.0129837 9.39669838,35.1010759 C10.0246833,35.1895044 10.6774459,35.3122284 11.3554987,35.4689116 L11.3554987,34.2332661 C11.3554987,32.9586178 11.0861914,32.0612197 10.5480895,31.5412399 C10.0098167,31.0219325 9.08279135,30.7616905 7.76701341,30.7616905 C7.16893253,30.7616905 6.55581418,30.8353248 5.92782925,30.9824255 C5.29984433,31.1295262 4.68672598,31.320673 4.0886451,31.556034 C3.80925588,31.6737146 3.61018039,31.7471808 3.49056421,31.7767691 C3.37111892,31.8061892 3.28140679,31.8208152 3.2215987,31.8208152 C2.98236634,31.8208152 2.86257929,31.6442944 2.86257929,31.2912528 L2.86257929,30.4674891 C2.86257929,30.1931254 2.90239439,29.996767 2.98236634,29.8790865 C3.06165478,29.761406 3.2215987,29.6437254 3.46066017,29.5260449 C4.05874105,29.2318436 4.77660899,28.9773174 5.61392223,28.7611215 C6.45106459,28.545598 7.33810398,28.4375 8.27521128,28.4375 C10.3088572,28.4375 11.7987621,28.893428 12.7459513,29.8056202 C13.6926279,30.7174762 14.1664789,32.0956833 14.1664789,33.9390648 L14.1664789,39.4112094 Z M46.6529271,53.3190238 C41.0020135,57.7034088 32.8100252,60.0347222 25.7555652,60.0347222 C15.8689549,60.0347222 6.96575402,56.1923857 0.228456333,49.7966113 C-0.300490872,49.2942602 0.171305321,48.6083994 0.80717469,48.9972523 C8.07616558,53.4442507 17.0651788,56.1225545 26.3492149,56.1225545 C32.612142,56.1225545 39.496522,54.7560656 45.8315315,51.9308819 C46.7866227,51.5048578 47.587595,52.5927439 46.6529271,53.3190238 Z M48.9463867,50.6903073 C48.1877547,49.6979911 43.9339772,50.2201077 42.0225415,50.454287 C41.4434385,50.5251667 41.353764,50.0078367 41.8754248,49.6333709 C45.2695514,47.196397 50.8300918,47.8998553 51.4765407,48.7159847 C52.1274913,49.5389259 51.3052948,55.2391288 48.1252706,57.9592534 C47.6358422,58.3773517 47.1705431,58.1542187 47.3875267,57.6019091 C48.1033022,55.7745009 49.7053789,51.6837281 48.9463867,50.6903073 Z" id="Fill-1"></path>
            </g>
        </g>
    </g>
</svg>