<?xml version="1.0" encoding="utf-8"?>
<!-- Generator: Adobe Illustrator 24.0.3, SVG Export Plug-In . SVG Version: 6.00 Build 0)  -->
<svg version="1.1" id="Layer_1" xmlns="http://www.w3.org/2000/svg" xmlns:xlink="http://www.w3.org/1999/xlink" x="0px" y="0px"
	 viewBox="0 0 31 31" style="enable-background:new 0 0 31 31;" xml:space="preserve">
<style type="text/css">
	.st0{display:none;fill-rule:evenodd;clip-rule:evenodd;fill:#FFFFFF;}
	.st1{fill:#15C26B;}
</style>
<title>🎨 icon-color</title>
<desc>Created with Sketch.</desc>
<g id="Design">
	<g id="homepage-desktop-Bootcamp-design" transform="translate(-862.000000, -1033.000000)">
		<rect class="st0" width="1440" height="3316"/>
		<g id="Group-24" transform="translate(87.000000, 875.000000)">
			<g id="Group-8" transform="translate(0.000000, 96.000000)">
				<g id="icon-_x2F_-object-_x2F_-time">
					<path id="_xD83C__xDFA8_-icon-color" class="st1" d="M789.1,78.2c-0.3-0.3-0.4-0.7-0.4-1.1v-7.5c0-0.8,0.7-1.5,1.5-1.5
						s1.5,0.7,1.5,1.5v6.9l4.1,4.1c0.6,0.6,0.6,1.5,0,2.1c-0.6,0.6-1.5,0.6-2.1,0L789.1,78.2z M790.1,92.2
						c-8.3,0-15.1-6.8-15.1-15.1s6.8-15.1,15.1-15.1s15.1,6.8,15.1,15.1S798.5,92.2,790.1,92.2z M790.1,89.2
						c6.7,0,12.1-5.4,12.1-12.1c0-6.7-5.4-12.1-12.1-12.1s-12.1,5.4-12.1,12.1C778.1,83.8,783.5,89.2,790.1,89.2z"/>
				</g>
			</g>
		</g>
	</g>
</g>
</svg>
